# xmcd
#
# Track frame offsets:
#   150
#   18813
#   39281
#   56567
#   74577
#   99127
#   117645
#   136157
#   152062
#   174500
#   196079
#   213837
#   230995
#
# Disc length: 3327 seconds
#
# Revision: 0
# Processed by: cddbd v1.5.1PL0 Copyright (c) Steve Scherf et al.
# Submitted via: uFREEDB ActiveX Control 1.5
#
DISCID=ab0cfd0d
DTITLE=Tebanos - Por Um Canto Apenas
DYEAR=2005
DGENRE=Alternative
TTITLE0=Tropa de Osso
TTITLE1=Razão e Coração - Índia Guarani
TTITLE2=Rancho de Luz
TTITLE3=Serra-fita, Serra Vida
TTITLE4=Sete Vidas
TTITLE5=Soy el Chamamé
TTITLE6=Os Homens de Preto
TTITLE7=La Barca
TTITLE8=Cavalo Baio
TTITLE9=Prenda Minha - Meu Pago - Felicidade
TTITLE10=Canto Alegretense
TTITLE11=Por Um Canto Apenas
TTITLE12=Eu Sou do Sul
EXTD=by LuKaST
EXTT0=
EXTT1=
EXTT2=
EXTT3=
EXTT4=
EXTT5=
EXTT6=
EXTT7=
EXTT8=
EXTT9=
EXTT10=
EXTT11=
EXTT12=
PLAYORDER=
